PathFileType	4	(X/Y/Z)	D:\TRACE\spot_10-12-23\spot_arm_body_motion_1_2-platform.trc
DataRate	CameraRate	NumFrames	NumMarkers	Units	OrigDataRate	OrigDataStartFrame	OrigNumFrames
100.00	100.00	      66	5	mm	100.00	1751	      7000
Frame#	Time	Left_Front			Right_Front			Left_Aft			Right_Aft			Post			
		X1	Y1	Z1	X2	Y2	Z2	X3	Y3	Z3	X4	Y4	Z4	X5	Y5	Z5	

1751	17.500	-764.64856	-15.40329	-657.24683	802.85602	-17.18974	-632.45349	-693.34174	28.56975	480.25879	716.60840	31.42067	580.80286	37.41719	703.83276	-996.20605	
1752	17.510	-763.85059	-15.46332	-657.40900	803.72430	-17.14229	-632.43317	-692.18939	28.69645	480.31607	717.54810	31.57174	580.76135	38.55501	703.81573	-996.15088	
1753	17.520	-762.60034	-15.57644	-657.51361	804.66241	-17.19284	-632.41412	-691.42688	28.71748	480.33661	718.62714	31.67010	580.75848	39.28382	703.91992	-996.25018	
1754	17.530	-761.73102	-15.63936	-657.43329	805.53961	-17.13901	-632.46741	-690.69995	28.91345	480.18600	719.39508	31.63790	580.75836	40.51936	703.94641	-996.13446	
1755	17.540	-760.86035	-15.54726	-657.34235	806.45361	-17.10904	-632.46637	-689.63715	28.77522	480.29684	720.26111	31.41628	580.74579	41.64771	703.85455	-996.10162	
1756	17.550	-759.96686	-15.68318	-657.63251	807.23682	-17.24401	-632.44501	-688.77771	28.66375	480.33844	721.26373	31.43197	580.92529	42.15135	703.75305	-996.30664	
1757	17.560	-759.15161	-15.43881	-657.43646	808.30725	-17.23246	-632.31110	-687.74951	28.70160	480.33109	722.03986	31.51103	580.96588	43.30312	703.92017	-995.86987	
1758	17.570	-758.05371	-15.61258	-657.33643	809.30511	-16.99857	-632.34802	-686.87958	28.82333	480.29443	723.02887	31.71438	580.92175	44.23947	703.96997	-995.87769	
1759	17.580	-757.32574	-15.31193	-657.40143	810.18353	-17.02934	-632.44556	-686.04828	28.84743	480.25583	724.09045	31.71459	580.84955	44.59068	703.91150	-996.30121	
1760	17.590	-756.46466	-15.41641	-657.39264	811.02393	-17.12675	-632.39740	-685.04572	28.68327	480.24002	724.87775	31.53542	580.90369	45.70026	703.79590	-996.40961	
1761	17.600	-755.40143	-15.70375	-657.64398	811.78339	-17.16840	-632.45978	-684.30249	28.54650	480.29218	725.75256	31.53417	581.03149	46.70591	703.70331	-996.24915	
1762	17.610	-754.53162	-15.58874	-657.30115	812.75549	-17.20488	-632.47015	-683.38049	28.62538	480.35574	726.58264	31.66572	580.99603	47.40980	703.72601	-996.04498	
1763	17.620	-753.68079	-15.54155	-657.23346	813.63104	-17.06719	-632.32880	-682.27832	28.57936	480.38913	727.37549	31.52673	580.86102	48.17716	703.88416	-995.89722	
1764	17.630	-752.89728	-15.48453	-657.25177	814.47229	-17.01165	-632.31348	-681.65265	28.68031	480.40402	728.24445	31.48001	580.80768	49.51154	703.96753	-995.68823	
1765	17.640	-752.13300	-15.47482	-657.40320	815.32764	-16.90966	-632.26306	-680.82697	28.59177	480.43341	729.09198	31.35237	580.87000	50.23566	703.95514	-995.77551	
1766	17.650	-751.23511	-15.51308	-657.38251	816.15100	-16.94947	-632.29846	-680.03754	28.47732	480.34198	729.74072	31.31959	580.92163	51.12516	704.01141	-995.66156	
1767	17.660	-750.35565	-15.52167	-657.18695	816.99512	-16.83703	-632.35071	-679.27045	28.49115	480.37262	730.70630	31.33173	580.95667	52.07206	704.19135	-995.54871	
1768	17.670	-749.56873	-15.23922	-657.20685	817.71136	-16.68353	-632.35541	-678.29340	28.47068	480.44214	731.72217	31.40834	580.98767	52.89466	704.43176	-995.49634	
1769	17.680	-748.79492	-14.96922	-657.18365	818.50812	-16.60578	-632.27887	-677.54120	28.56623	480.47858	732.46307	31.28072	580.95874	53.50127	704.64813	-995.45660	
1770	17.690	-748.08234	-14.88339	-657.22510	819.38635	-16.48256	-632.17883	-676.79987	28.47077	480.59906	733.17059	31.17654	581.00824	54.08282	704.78723	-995.37671	
1771	17.700	-747.36932	-14.75194	-657.10364	820.09363	-16.46112	-632.16418	-675.86993	28.07913	480.69055	733.91583	30.96935	581.05292	55.09121	704.92883	-995.18585	
1772	17.710	-746.59198	-14.74012	-657.04517	820.91272	-16.29126	-632.10242	-675.15894	27.86202	480.70517	734.63892	30.82651	581.15765	54.99888	705.14923	-994.91144	
1773	17.720	-745.73871	-14.49775	-657.10889	821.73541	-16.05765	-632.04944	-674.56659	27.87942	480.75980	735.31439	30.72668	581.22156	55.55595	705.35236	-994.81091	
1774	17.730	-744.88391	-14.39149	-657.24591	822.52582	-15.83289	-632.00818	-673.77277	27.92285	480.80240	736.16730	30.73467	581.29260	56.85737	705.61719	-994.61145	
1775	17.740	-744.37085	-14.14751	-657.06757	822.89697	-16.09908	-632.07971	-672.88452	27.80970	480.85776	736.89441	30.68641	581.36804	58.24911	705.88239	-994.22736	
1776	17.750	-743.71252	-14.08084	-657.00891	823.62677	-16.04274	-632.07129	-672.22693	27.71717	480.91202	737.63068	30.44263	581.33875	58.79181	706.05157	-993.84521	
1777	17.760	-742.89026	-14.05676	-656.88037	824.38660	-15.74992	-632.03394	-671.70349	27.60563	480.87048	738.24597	30.33524	581.36548	57.99790	706.14636	-993.95490	
1778	17.770	-742.23273	-13.88781	-656.87177	825.20428	-15.45789	-631.93390	-670.97461	27.37294	480.85971	739.12256	30.30973	581.43335	59.35878	706.32330	-993.82782	
1779	17.780	-741.50842	-13.73891	-656.93243	825.86237	-15.13856	-631.88324	-670.25378	27.20846	480.92291	739.65125	30.30632	581.46869	60.49328	706.60010	-993.48883	
1780	17.790	-740.94061	-13.47846	-656.88000	826.53760	-14.91379	-631.83972	-669.59387	27.16119	481.03195	740.36316	30.21951	581.51868	60.02033	707.04431	-993.38940	
1781	17.800	-740.32300	-13.32891	-656.86047	827.14276	-14.76461	-631.75427	-668.96423	27.11321	481.11359	741.07324	30.05199	581.58466	60.21825	707.39899	-993.24054	
1782	17.810	-739.81458	-13.19741	-656.87396	827.65918	-14.69810	-631.67444	-668.41437	26.95200	481.24402	741.61945	29.78478	581.64105	61.28464	707.58771	-993.03735	
1783	17.820	-738.85541	-13.19275	-656.77527	828.29144	-14.59533	-631.66223	-667.82428	26.79807	481.24640	742.03632	29.66592	581.68512	62.52398	707.66833	-992.92291	
1784	17.830	-738.43384	-12.95994	-656.56616	828.85962	-14.39382	-631.64264	-667.38641	26.78554	481.25214	742.60004	29.50430	581.71796	63.29324	707.89319	-992.83081	
1785	17.840	-737.89227	-12.74027	-656.53943	829.45056	-14.08726	-631.66559	-666.80182	26.76883	481.28149	743.18536	29.36809	581.80316	64.38031	708.27588	-992.19537	
1786	17.850	-737.41907	-12.44366	-656.44769	829.98431	-13.87503	-631.61511	-666.19983	26.63626	481.34122	743.79449	29.14352	581.92444	64.88104	708.50757	-992.00525	
1787	17.860	-736.96350	-12.33235	-656.47821	830.46283	-13.69296	-631.52710	-665.70990	26.41538	481.39426	744.13824	28.97872	581.97687	65.13197	708.73169	-991.98669	
1788	17.870	-736.44312	-12.34565	-656.77478	830.82397	-13.57592	-631.46918	-665.33630	26.21299	481.45853	744.55841	28.85520	582.07782	65.41360	709.01666	-991.89166	
1789	17.880	-735.94641	-12.08044	-656.51697	831.34521	-13.39948	-631.44897	-664.80316	26.07175	481.51031	745.09998	28.69846	582.12354	65.86258	709.37384	-991.60236	
1790	17.890	-735.42065	-11.99214	-656.43475	831.78418	-12.99639	-631.48578	-664.14905	25.92179	481.52429	745.68219	28.58644	582.18634	66.48349	709.76825	-991.14178	
1791	17.900	-734.98669	-11.76510	-656.27350	832.24835	-12.80989	-631.42523	-663.76556	25.79767	481.67584	746.17310	28.45116	582.22296	66.98406	710.08521	-990.76990	
1792	17.910	-734.63916	-11.45739	-656.10291	832.70215	-12.70926	-631.25812	-663.35156	25.62347	481.74908	746.57086	28.10860	582.37439	67.62372	710.45764	-990.04468	
1793	17.920	-734.52667	-11.05500	-655.93018	833.04224	-12.32687	-631.16016	-663.06049	25.40383	481.74643	746.73608	27.85386	582.44580	68.01342	710.77710	-989.71338	
1794	17.930	-734.06415	-10.98304	-655.97070	833.38367	-12.07613	-631.07385	-662.86414	25.21088	481.85156	746.97736	27.69130	582.49823	67.98083	711.29449	-989.59113	
1795	17.940	-733.85339	-10.60882	-655.88745	833.72382	-11.73504	-631.04791	-662.62360	25.09317	481.90302	747.32196	27.48322	582.51971	67.91446	711.82922	-989.41327	
1796	17.950	-733.63092	-10.10905	-655.82672	833.82782	-11.73731	-630.99554	-662.32635	24.99260	481.98584	747.61365	27.39523	582.59906	68.28188	712.15973	-988.95685	
1797	17.960	-733.45538	-9.79908	-655.77618	834.02405	-11.63251	-630.97308	-662.06982	24.75206	482.08099	747.88226	27.16848	582.69672	69.03771	712.42719	-988.21338	
1798	17.970	-733.29883	-9.69904	-655.71515	834.32556	-11.08561	-630.92816	-661.83636	24.53901	482.16797	748.09027	26.98219	582.73926	69.24892	712.66803	-987.95062	
1799	17.980	-733.01007	-9.61027	-655.85413	834.46655	-10.88655	-630.94037	-661.62793	24.38323	482.23264	748.31671	26.83432	582.81830	69.42525	712.98242	-987.61395	
1800	17.990	-733.04437	-9.30119	-655.78571	834.61316	-10.72958	-630.88989	-661.36694	24.26920	482.30106	748.45239	26.76595	582.87201	69.18219	713.35638	-987.73718	
1801	18.000	-732.87354	-9.16347	-655.81635	834.75323	-10.54621	-630.82562	-661.24109	24.19182	482.37061	748.55554	26.60422	582.94177	69.05215	713.78564	-987.80371	
1802	18.010	-732.80127	-8.85935	-655.69733	834.79791	-10.30976	-630.75714	-661.17310	24.05462	482.46780	748.67548	26.35592	583.02094	69.17629	714.16040	-987.41852	
1803	18.020	-732.67822	-8.68733	-655.65308	834.80896	-10.06018	-630.69818	-661.17303	23.92222	482.52258	748.69641	26.24457	583.07410	69.50283	714.41827	-986.63635	
1804	18.030	-732.64441	-8.51668	-655.54352	834.83411	-9.95651	-630.70160	-661.15778	23.74392	482.63297	748.76508	25.95268	583.16870	69.77199	714.69867	-986.46008	
1805	18.040	-732.49438	-8.34513	-655.48828	834.90564	-9.74300	-630.68616	-661.10370	23.60484	482.65823	748.82611	25.85417	583.27795	69.38146	714.98132	-986.70856	
1806	18.050	-732.34271	-8.05596	-655.42108	835.00085	-9.33240	-630.67889	-661.05023	23.46443	482.73325	748.95074	25.72346	583.34418	69.29985	715.61633	-986.28131	
1807	18.060	-732.30225	-7.87189	-655.40424	835.04089	-8.90243	-630.57031	-661.02026	23.29475	482.78189	749.07306	25.48733	583.45508	69.56545	715.97522	-985.72180	
1808	18.070	-732.11029	-7.88894	-655.57050	835.02130	-8.62100	-630.45728	-661.04395	23.14327	482.84518	749.04993	25.26927	583.56610	69.85941	716.23578	-985.25104	
1809	18.080	-732.48114	-7.40882	-655.32123	835.01660	-8.42447	-630.37787	-661.12958	22.94273	482.87622	748.94196	25.05390	583.67505	69.88692	716.66992	-984.96301	
1810	18.090	-732.56012	-7.05858	-655.28369	835.01343	-8.19715	-630.31329	-661.13049	22.62188	482.95572	748.82300	24.77392	583.70349	69.61383	716.97986	-985.00629	
1811	18.100	-732.67133	-6.58395	-655.24915	835.01196	-7.93283	-630.26508	-661.09167	22.40142	483.00912	748.82013	24.60978	583.75604	69.51302	717.43445	-984.70715	
1812	18.110	-732.70831	-6.22216	-655.16797	835.03210	-7.70121	-630.23779	-661.07758	22.21091	483.04715	748.83856	24.42202	583.80603	69.45635	717.96191	-984.13977	
1813	18.120	-732.70789	-5.85317	-655.08795	834.97192	-7.46068	-630.18457	-661.08722	22.00537	483.10672	748.77802	24.13563	583.88605	69.64744	718.45587	-983.21588	
1814	18.130	-732.76874	-5.66401	-654.96631	834.82672	-7.22456	-630.14465	-661.21356	21.81056	483.18063	748.68127	23.82849	583.95612	70.24500	718.71973	-982.02484	
1815	18.140	-732.95056	-5.49380	-654.89355	834.55127	-6.97354	-630.08875	-661.44482	21.66086	483.31870	748.46368	23.63114	584.07428	69.56986	719.10913	-982.52100	
1816	18.150	-733.07086	-5.26145	-654.82166	834.31812	-6.71528	-630.01917	-661.73224	21.49197	483.38882	748.27710	23.47084	584.14996	69.13552	719.72467	-982.09241	
